{
  "asset": {
    "generator": "Khronos glTF Blender I/O v3.3.32",
    "version": "2.0"
  },
  "scene": 0,
  "scenes": [
    {
      "name": "Scene",
      "nodes": [
        0,
        1
      ]
    }
  ],
  "nodes": [
    {
      "mesh": 0,
      "name": "football_deflated",
      "translation": [
        -0.14999999105930328,
        0,
        0
      ]
    },
    {
      "mesh": 1,
      "name": "football_inflated",
      "translation": [
        0.14999999105930328,
        0.11100000143051147,
        0
      ]
    }
  ],
  "materials": [
    {
      "doubleSided": true,
      "name": "football",
      "normalTexture": {
        "index": 0
      },
      "pbrMetallicRoughness": {
        "baseColorTexture": {
          "index": 1
        },
        "metallicFactor": 0,
        "metallicRoughnessTexture": {
          "index": 2
        }
      }
    }
  ],
  "meshes": [
    {
      "name": "Football_01_deflated",
      "primitives": [
        {
          "attributes": {
            "POSITION": 0,
            "NORMAL": 1,
            "TEXCOORD_0": 2
          },
          "indices": 3,
          "material": 0
        }
      ]
    },
    {
      "name": "Football_01_inflated",
      "primitives": [
        {
          "attributes": {
            "POSITION": 4,
            "NORMAL": 5,
            "TEXCOORD_0": 6
          },
          "indices": 7,
          "material": 0
        }
      ]
    }
  ],
  "textures": [
    {
      "sampler": 0,
      "source": 0
    },
    {
      "sampler": 0,
      "source": 1
    },
    {
      "sampler": 0,
      "source": 2
    }
  ],
  "images": [
    {
      "mimeType": "image/jpeg",
      "name": "football_nor_gl",
      "uri": "textures/football_nor_gl_4k.jpg"
    },
    {
      "mimeType": "image/jpeg",
      "name": "football_diff",
      "uri": "textures/football_diff_4k.jpg"
    },
    {
      "mimeType": "image/jpeg",
      "name": "football_rough",
      "uri": "textures/football_arm_4k.jpg"
    }
  ],
  "accessors": [
    {
      "bufferView": 0,
      "componentType": 5126,
      "count": 1434,
      "max": [
        0.1159202978014946,
        0.20241841673851013,
        0.11034728586673737
      ],
      "min": [
        -0.09871886670589447,
        0.00007257416291395202,
        -0.11181004345417023
      ],
      "type": "VEC3"
    },
    {
      "bufferView": 1,
      "componentType": 5126,
      "count": 1434,
      "type": "VEC3"
    },
    {
      "bufferView": 2,
      "componentType": 5126,
      "count": 1434,
      "type": "VEC2"
    },
    {
      "bufferView": 3,
      "componentType": 5123,
      "count": 7128,
      "type": "SCALAR"
    },
    {
      "bufferView": 4,
      "componentType": 5126,
      "count": 1187,
      "max": [
        0.11015874147415161,
        0.11094234883785248,
        0.1102934256196022
      ],
      "min": [
        -0.11015874147415161,
        -0.11094234883785248,
        -0.1102934256196022
      ],
      "type": "VEC3"
    },
    {
      "bufferView": 5,
      "componentType": 5126,
      "count": 1187,
      "type": "VEC3"
    },
    {
      "bufferView": 6,
      "componentType": 5126,
      "count": 1187,
      "type": "VEC2"
    },
    {
      "bufferView": 7,
      "componentType": 5123,
      "count": 5760,
      "type": "SCALAR"
    }
  ],
  "bufferViews": [
    {
      "buffer": 0,
      "byteLength": 17208,
      "byteOffset": 0,
      "target": 34962
    },
    {
      "buffer": 0,
      "byteLength": 17208,
      "byteOffset": 17208,
      "target": 34962
    },
    {
      "buffer": 0,
      "byteLength": 11472,
      "byteOffset": 34416,
      "target": 34962
    },
    {
      "buffer": 0,
      "byteLength": 14256,
      "byteOffset": 45888,
      "target": 34963
    },
    {
      "buffer": 0,
      "byteLength": 14244,
      "byteOffset": 60144,
      "target": 34962
    },
    {
      "buffer": 0,
      "byteLength": 14244,
      "byteOffset": 74388,
      "target": 34962
    },
    {
      "buffer": 0,
      "byteLength": 9496,
      "byteOffset": 88632,
      "target": 34962
    },
    {
      "buffer": 0,
      "byteLength": 11520,
      "byteOffset": 98128,
      "target": 34963
    }
  ],
  "samplers": [
    {
      "magFilter": 9729,
      "minFilter": 9987
    }
  ],
  "buffers": [
    {
      "byteLength": 109648,
      "uri": "football.bin"
    }
  ]
}